<?xml version="1.0" encoding="utf-8"?>
<!-- Generator: Adobe Illustrator 16.0.0, SVG Export Plug-In . SVG Version: 6.00 Build 0)  -->
<!DOCTYPE svg PUBLIC "-//W3C//DTD SVG 1.1//EN" "http://www.w3.org/Graphics/SVG/1.1/DTD/svg11.dtd">
<svg version="1.1" id="Layer_1" xmlns="http://www.w3.org/2000/svg" xmlns:xlink="http://www.w3.org/1999/xlink" x="0px" y="0px"
	 width="612px" height="792px" viewBox="0 0 612 792" enable-background="new 0 0 612 792" xml:space="preserve">
<g>
	<path d="M602.098,362.981L602.098,362.981l-0.018,0.003c0,54.21-33.487,103.215-87.617,138.607
		c-53.763,35.148-127.975,56.894-209.905,56.894v0.016h-0.01h-0.004v-0.016c-81.929,0-156.149-21.742-209.911-56.894
		C40.503,466.197,7.018,417.197,7.018,362.987H7v-0.003v-0.003h0.017c0-54.21,33.486-103.21,87.62-138.603
		c53.757-35.149,127.974-56.891,209.899-56.894v-0.015h0.011h0.006v0.015c81.93,0,156.155,21.742,209.913,56.894
		c54.132,35.395,87.613,84.392,87.618,138.603h0.015l0,0H602.098z"/>
	<path fill="#FFCB05" d="M593.838,362.984h-0.02v-0.003v-0.005h0.02c-0.008-51.734-32.204-98.656-84.261-132.69
		c-52.424-34.282-124.914-55.487-205.023-55.487v0.015h-0.006h-0.011v-0.015c-80.106,0-152.587,21.208-205.018,55.484
		c-52.055,34.038-84.254,80.959-84.254,132.693h0.019v0.003v0.002h-0.019c0,51.735,32.199,98.653,84.254,132.694
		c52.43,34.28,124.916,55.486,205.024,55.486v-0.015h0.004h0.01v0.015c80.107-0.003,152.59-21.206,205.015-55.486
		C561.634,461.643,593.838,414.721,593.838,362.984L593.838,362.984z"/>
	<path d="M304.193,488.039c-25.194-72.121-80.466-85.824-111.35-51.928c-26.822-57.693-95.091-54.09-116.225-5.769
		c-39.01-47.599-14.626-137.748,54.456-181.743c54.456,72.121,117.854,47.599,135.731-7.211
		c7.318,15.146,17.881,26.684,37.391,26.684c19.506,0,30.075-11.537,37.389-26.684c17.875,54.81,81.277,79.332,135.73,7.211
		c69.082,43.995,93.47,134.146,54.458,181.743c-21.137-48.321-89.406-51.925-116.227,5.769
		C384.655,402.215,329.388,415.918,304.193,488.039L304.193,488.039z"/>
</g>
</svg>
